<svg width="62.000000" height="62.000000" viewBox="0 0 62 62" fill="none" xmlns="http://www.w3.org/2000/svg" xmlns:xlink="http://www.w3.org/1999/xlink">
	<desc>
			Created with Pixso.
	</desc>
	<defs>
		<filter id="filter_1_305_dd" x="0.000000" y="0.000000" width="62.000000" height="62.000000" filterUnits="userSpaceOnUse" color-interpolation-filters="sRGB">
			<feFlood flood-opacity="0" result="BackgroundImageFix"/>
			<feColorMatrix in="SourceAlpha" type="matrix" values="0 0 0 0 0 0 0 0 0 0 0 0 0 0 0 0 0 0 127 0" result="hardAlpha"/>
			<feOffset dx="0" dy="4"/>
			<feGaussianBlur stdDeviation="4.66667"/>
			<feComposite in2="hardAlpha" operator="out" k2="-1" k3="1"/>
			<feColorMatrix type="matrix" values="0 0 0 0 0 0 0 0 0 0 0 0 0 0 0 0 0 0 0.15 0"/>
			<feBlend mode="normal" in2="BackgroundImageFix" result="effect_dropShadow_1"/>
			<feBlend mode="normal" in="SourceGraphic" in2="effect_dropShadow_1" result="shape"/>
		</filter>
		<clipPath id="clip1_306">
			<rect id="facebook 1" rx="-0.500000" width="11.000000" height="11.000000" transform="translate(25.500000 21.500000)" fill="white" fill-opacity="0"/>
		</clipPath>
	</defs>
	<g filter="url(#filter_1_305_dd)">
		<circle id="Ellipse 1" cx="31.000000" cy="27.000000" r="17.000000" fill="#FFFFFF" fill-opacity="1.000000"/>
	</g>
	<rect id="facebook 1" rx="-0.500000" width="11.000000" height="11.000000" transform="translate(25.500000 21.500000)" fill="#FFFFFF" fill-opacity="0"/>
	<g clip-path="url(#clip1_306)">
		<path id="Vector" d="M32.99 22.99L34.09 22.99L34.09 21.08C33.9 21.05 33.25 21 32.49 21C30.91 21 29.83 21.99 29.83 23.81L29.83 25.5L28.09 25.5L28.09 27.63L29.83 27.63L29.83 33L31.97 33L31.97 27.63L33.64 27.63L33.91 25.5L31.97 25.5L31.97 24.03C31.97 23.41 32.13 22.99 32.99 22.99Z" fill="#000000" fill-opacity="1.000000" fill-rule="nonzero"/>
	</g>
</svg>
