<svg width="12.000000" height="12.000000" viewBox="0 0 12 12" fill="none" xmlns="http://www.w3.org/2000/svg" xmlns:xlink="http://www.w3.org/1999/xlink">
	<desc>
			Created with Pixso.
	</desc>
	<defs>
		<clipPath id="clip1_506">
			<rect id="GAME_aRROW" rx="-0.500000" width="11.000000" height="11.000000" transform="matrix(1 1.61329e-16 1.61329e-16 -1 0.5 12.5)" fill="white" fill-opacity="0"/>
		</clipPath>
	</defs>
	<rect id="GAME_aRROW" rx="-0.500000" width="11.000000" height="11.000000" transform="matrix(1 1.61329e-16 1.61329e-16 -1 0.5 12.5)" fill="#FFFFFF" fill-opacity="0"/>
	<g clip-path="url(#clip1_506)">
		<path id="Vector" d="M11.27 7.98C11.22 7.99 11.17 7.99 11.13 7.99L2.66 7.99L2.84 8.08C3.02 8.16 3.19 8.28 3.33 8.42L5.7 10.79C6.02 11.09 6.07 11.57 5.83 11.93C5.55 12.31 5.01 12.4 4.63 12.12C4.6 12.1 4.57 12.07 4.54 12.04L0.25 7.75C-0.09 7.42 -0.09 6.87 0.25 6.54C0.25 6.54 0.25 6.54 0.25 6.54L4.54 2.24C4.88 1.91 5.42 1.91 5.75 2.24C5.78 2.27 5.8 2.3 5.83 2.33C6.07 2.69 6.02 3.17 5.7 3.47L3.33 5.84C3.21 5.97 3.06 6.08 2.9 6.16L2.65 6.27L11.08 6.27C11.52 6.26 11.9 6.56 11.98 7C12.06 7.46 11.74 7.9 11.27 7.98Z" fill="#FFFFFF" fill-opacity="1.000000" fill-rule="nonzero"/>
	</g>
</svg>
