<svg width="12.000000" height="12.000000" viewBox="0 0 12 12" fill="none" xmlns="http://www.w3.org/2000/svg" xmlns:xlink="http://www.w3.org/1999/xlink">
	<desc>
			Created with Pixso.
	</desc>
	<defs>
		<clipPath id="clip1_502">
			<rect id="GAME__ARROW" rx="-0.500000" width="11.000000" height="11.000000" transform="translate(12.500000 12.500000) rotate(180.000000)" fill="white" fill-opacity="0"/>
		</clipPath>
	</defs>
	<rect id="GAME__ARROW" rx="-0.500000" width="11.000000" height="11.000000" transform="translate(12.500000 12.500000) rotate(180.000000)" fill="#FFFFFF" fill-opacity="0"/>
	<g clip-path="url(#clip1_502)">
		<path id="Vector" d="M0.72 7.98C0.77 7.99 0.82 7.99 0.86 7.99L9.33 7.99L9.15 8.08C8.97 8.16 8.8 8.28 8.66 8.42L6.29 10.79C5.97 11.09 5.92 11.57 6.16 11.93C6.44 12.31 6.98 12.4 7.36 12.12C7.39 12.1 7.42 12.07 7.45 12.04L11.74 7.75C12.08 7.42 12.08 6.87 11.74 6.54C11.74 6.54 11.74 6.54 11.74 6.54L7.45 2.24C7.11 1.91 6.57 1.91 6.24 2.24C6.21 2.27 6.19 2.3 6.16 2.33C5.92 2.69 5.97 3.17 6.29 3.47L8.66 5.84C8.78 5.97 8.93 6.08 9.09 6.16L9.34 6.27L0.91 6.27C0.47 6.26 0.09 6.56 0.01 7C-0.07 7.46 0.25 7.9 0.72 7.98Z" fill="#FFFFFF" fill-opacity="1.000000" fill-rule="nonzero"/>
	</g>
</svg>
