<svg width="15.000000" height="15.000000" viewBox="0 0 15 15" fill="none" xmlns="http://www.w3.org/2000/svg" xmlns:xlink="http://www.w3.org/1999/xlink">
	<desc>
			Created with Pixso.
	</desc>
	<defs/>
	<path id="game_search" d="M14.9 14.02L10.55 9.66C11.37 8.64 11.87 7.34 11.87 5.93C11.87 2.66 9.21 0 5.93 0C2.66 0 0 2.66 0 5.93C0 9.21 2.66 11.87 5.93 11.87C7.34 11.87 8.64 11.37 9.66 10.55L14.02 14.9C14.14 15.03 14.34 15.03 14.46 14.9L14.9 14.46C15.03 14.34 15.03 14.14 14.9 14.02ZM5.93 10.62C3.35 10.62 1.25 8.52 1.25 5.93C1.25 3.35 3.35 1.25 5.93 1.25C8.52 1.25 10.62 3.35 10.62 5.93C10.62 8.52 8.52 10.62 5.93 10.62Z" fill="#FFFFFF" fill-opacity="1.000000" fill-rule="nonzero"/>
</svg>
