<svg width="62.000000" height="62.000000" viewBox="0 0 62 62" fill="none" xmlns="http://www.w3.org/2000/svg" xmlns:xlink="http://www.w3.org/1999/xlink">
	<desc>
			Created with Pixso.
	</desc>
	<defs>
		<filter id="filter_1_310_dd" x="0.000000" y="0.000000" width="62.000000" height="62.000000" filterUnits="userSpaceOnUse" color-interpolation-filters="sRGB">
			<feFlood flood-opacity="0" result="BackgroundImageFix"/>
			<feColorMatrix in="SourceAlpha" type="matrix" values="0 0 0 0 0 0 0 0 0 0 0 0 0 0 0 0 0 0 127 0" result="hardAlpha"/>
			<feOffset dx="0" dy="4"/>
			<feGaussianBlur stdDeviation="4.66667"/>
			<feComposite in2="hardAlpha" operator="out" k2="-1" k3="1"/>
			<feColorMatrix type="matrix" values="0 0 0 0 0 0 0 0 0 0 0 0 0 0 0 0 0 0 0.15 0"/>
			<feBlend mode="normal" in2="BackgroundImageFix" result="effect_dropShadow_1"/>
			<feBlend mode="normal" in="SourceGraphic" in2="effect_dropShadow_1" result="shape"/>
		</filter>
		<clipPath id="clip1_311">
			<rect id="instagram 1" rx="-0.500000" width="12.000000" height="12.000000" transform="translate(25.500000 20.500000)" fill="white" fill-opacity="0"/>
		</clipPath>
	</defs>
	<g filter="url(#filter_1_310_dd)">
		<circle id="Ellipse 1" cx="31.000000" cy="27.000000" r="17.000000" fill="#FFFFFF" fill-opacity="1.000000"/>
	</g>
	<rect id="instagram 1" rx="-0.500000" width="12.000000" height="12.000000" transform="translate(25.500000 20.500000)" fill="#FFFFFF" fill-opacity="0"/>
	<g clip-path="url(#clip1_311)">
		<path id="Vector" d="M34.48 20L28.51 20C26.57 20 25 21.57 25 23.51L25 29.48C25 31.42 26.57 33 28.51 33L34.48 33C36.42 33 38 31.42 38 29.48L38 23.51C38 21.57 36.42 20 34.48 20L34.48 20ZM37.23 29.48C37.23 31 36 32.23 34.48 32.23L28.51 32.23C26.99 32.23 25.76 31 25.76 29.48L25.76 23.51C25.76 21.99 26.99 20.76 28.51 20.76L34.48 20.76C36 20.76 37.23 21.99 37.23 23.51L37.23 29.48Z" fill="#000000" fill-opacity="1.000000" fill-rule="nonzero"/>
		<path id="Vector" d="M31.5 22.94C29.54 22.94 27.94 24.53 27.94 26.5C27.94 28.46 29.54 30.05 31.5 30.05C33.46 30.05 35.05 28.46 35.05 26.5C35.05 24.53 33.46 22.94 31.5 22.94ZM31.5 29.29C29.96 29.29 28.7 28.03 28.7 26.5C28.7 24.96 29.96 23.7 31.5 23.7C33.04 23.7 34.29 24.96 34.29 26.5C34.29 28.03 33.04 29.29 31.5 29.29Z" fill="#000000" fill-opacity="1.000000" fill-rule="nonzero"/>
		<path id="Vector" d="M35.13 21.68C34.56 21.68 34.08 22.15 34.08 22.73C34.08 23.31 34.56 23.78 35.13 23.78C35.71 23.78 36.18 23.31 36.18 22.73C36.18 22.15 35.71 21.68 35.13 21.68ZM35.13 23.02C34.98 23.02 34.85 22.89 34.85 22.73C34.85 22.57 34.98 22.44 35.13 22.44C35.29 22.44 35.42 22.57 35.42 22.73C35.42 22.89 35.29 23.02 35.13 23.02Z" fill="#000000" fill-opacity="1.000000" fill-rule="nonzero"/>
	</g>
</svg>
