<svg width="79.285156" height="20.971191" viewBox="0 0 79.2852 20.9712" fill="none" xmlns="http://www.w3.org/2000/svg" xmlns:xlink="http://www.w3.org/1999/xlink">
	<desc>
			Created with Pixso.
	</desc>
	<defs/>
	<path id="LOGO_game" d="M20.44 20.38Q22.14 20.97 24.04 20.97Q25.91 20.97 27.59 20.39Q28.48 20.09 29.31 19.62Q30.5 18.95 31.44 18.03Q32.41 17.09 33.11 15.88Q33.38 15.41 33.6 14.92Q34.5 12.9 34.5 10.47Q34.5 8.04 33.6 6.01Q33.38 5.52 33.11 5.06Q32.37 3.77 31.33 2.8Q30.44 1.95 29.33 1.33Q28.64 0.95 27.91 0.67Q26.1 0 24.04 0Q22.12 0 20.4 0.59Q19.56 0.89 18.76 1.33Q17.64 1.95 16.73 2.8Q15.69 3.78 14.94 5.06Q14.66 5.54 14.43 6.05Q13.54 8.06 13.54 10.47Q13.54 12.87 14.43 14.89Q14.66 15.39 14.94 15.88Q15.68 17.12 16.68 18.09Q17.61 18.97 18.76 19.62Q19.57 20.08 20.44 20.38ZM65.21 20.38Q66.91 20.97 68.82 20.97Q70.69 20.97 72.36 20.39Q73.25 20.09 74.09 19.62Q75.28 18.95 76.22 18.03Q77.18 17.09 77.89 15.88Q78.16 15.41 78.38 14.92Q79.28 12.9 79.28 10.47Q79.28 8.04 78.38 6.01Q78.16 5.52 77.89 5.06Q77.14 3.77 76.11 2.8Q75.22 1.95 74.1 1.33Q73.42 0.95 72.69 0.67Q70.88 0 68.82 0Q66.89 0 65.18 0.59Q64.33 0.89 63.53 1.33Q62.41 1.95 61.51 2.8Q60.47 3.78 59.72 5.06Q59.44 5.54 59.21 6.05Q58.32 8.06 58.32 10.47Q58.32 12.87 59.21 14.89Q59.44 15.39 59.72 15.88Q60.45 17.12 61.46 18.09Q62.38 18.97 63.53 19.62Q64.35 20.08 65.21 20.38ZM49.56 6.36Q49.88 6.66 50.11 7.05L56.23 7.05Q55.88 5.17 54.87 3.76Q54.15 2.74 53.09 1.97Q53.06 1.95 53.03 1.92Q50.52 0.12 46.71 0.12Q43.69 0.12 41.37 1.39Q41.33 1.41 41.29 1.43Q40.14 2.08 39.25 2.97Q38.31 3.91 37.65 5.11Q37.58 5.25 37.51 5.39Q36.36 7.65 36.36 10.49Q36.36 13.46 37.59 15.79Q37.62 15.84 37.65 15.9Q38.29 17.07 39.19 17.99Q40.11 18.92 41.31 19.59Q41.37 19.62 41.43 19.66Q43.75 20.9 46.74 20.9Q49.27 20.9 51.24 19.99Q53.21 19.08 54.5 17.66Q55.79 16.24 56.46 14.62L56.46 9.1L45.84 9.1L45.84 13.19L51.56 13.19Q50.92 14.54 49.86 15.21Q48.79 15.89 47.29 15.89Q45 15.89 43.7 14.76Q43.57 14.64 43.45 14.52Q42.13 13.14 42.13 10.49Q42.13 8.32 43.19 6.97Q43.27 6.86 43.37 6.76Q43.73 6.34 44.17 6.05Q45.23 5.36 46.74 5.36Q47.9 5.36 48.76 5.8Q49.21 6.03 49.56 6.36ZM12.03 16.41L5.68 16.41L5.68 0.31L0 0.31L0 20.76L12.03 20.76L12.03 16.41ZM26.63 14.99Q25.56 15.68 24.04 15.68Q22.43 15.68 21.33 14.94Q20.92 14.66 20.58 14.28Q20.51 14.2 20.45 14.12Q19.34 12.74 19.34 10.47Q19.34 8.13 20.49 6.74Q20.54 6.68 20.58 6.63Q20.93 6.24 21.35 5.96Q22.45 5.22 24.04 5.22Q25.57 5.22 26.65 5.92Q27.1 6.21 27.47 6.63Q27.54 6.7 27.6 6.78Q28.73 8.16 28.73 10.47Q28.73 12.63 27.69 14Q27.59 14.14 27.47 14.27Q27.09 14.69 26.63 14.99ZM71.41 14.99Q70.34 15.68 68.82 15.68Q67.21 15.68 66.11 14.94Q65.7 14.66 65.36 14.28Q65.29 14.2 65.22 14.12Q64.11 12.74 64.11 10.47Q64.11 8.13 65.26 6.74Q65.31 6.68 65.36 6.63Q65.71 6.24 66.12 5.96Q67.22 5.22 68.82 5.22Q70.35 5.22 71.42 5.92Q71.88 6.21 72.25 6.63Q72.32 6.7 72.38 6.78Q73.51 8.16 73.51 10.47Q73.51 12.63 72.47 14Q72.36 14.14 72.25 14.27Q71.87 14.69 71.41 14.99Z" fill="#FFFFFF" fill-opacity="1.000000" fill-rule="evenodd"/>
</svg>
