<svg width="30.000000" height="30.000000" viewBox="0 0 30 30" fill="none" xmlns="http://www.w3.org/2000/svg" xmlns:xlink="http://www.w3.org/1999/xlink">
	<desc>
			Created with Pixso.
	</desc>
	<defs>
		<clipPath id="clip1_930">
			<rect id="phone 1" rx="-0.500000" width="29.000000" height="29.000000" transform="translate(0.500000 0.500000)" fill="white" fill-opacity="0"/>
		</clipPath>
	</defs>
	<rect id="phone 1" rx="-0.500000" width="29.000000" height="29.000000" transform="translate(0.500000 0.500000)" fill="#FFFFFF" fill-opacity="0"/>
	<g clip-path="url(#clip1_930)">
		<path id="Vector" d="M10.07 12.34C11.1 11.32 11.1 9.64 10.07 8.62L6.45 5C5.9 4.45 5.14 4.17 4.35 4.23C3.58 4.29 2.89 4.69 2.45 5.3C2.35 5.43 2.27 5.56 2.18 5.69L9.45 12.97L10.07 12.34Z" fill="#FFFFFF" fill-opacity="1.000000" fill-rule="nonzero"/>
		<path id="Vector" d="M24.99 23.53L21.37 19.92C20.35 18.89 18.67 18.89 17.65 19.92L17.02 20.54L24.3 27.81C24.43 27.72 24.56 27.63 24.69 27.54C25.3 27.1 25.7 26.41 25.76 25.64C25.82 24.85 25.54 24.09 24.99 23.53Z" fill="#FFFFFF" fill-opacity="1.000000" fill-rule="nonzero"/>
		<path id="Vector" d="M14.54 21.93C13.83 21.93 13.17 21.66 12.67 21.16L8.83 17.32C8.33 16.82 8.06 16.16 8.06 15.45C8.06 15.05 8.14 14.66 8.31 14.31L1.28 7.28C0.29 9.36 -0.15 11.69 0.03 14.02C0.28 17.17 1.63 20.13 3.86 22.35L7.64 26.13C9.86 28.35 12.82 29.71 15.97 29.96C16.31 29.98 16.66 30 17 30C18.98 30 20.94 29.55 22.71 28.71L15.68 21.68C15.32 21.85 14.94 21.93 14.54 21.93Z" fill="#FFFFFF" fill-opacity="1.000000" fill-rule="nonzero"/>
		<path id="Vector" d="M17.69 0C17.2 0 16.81 0.39 16.81 0.87C16.81 1.36 17.2 1.75 17.69 1.75C23.51 1.75 28.24 6.48 28.24 12.3C28.24 12.79 28.63 13.18 29.12 13.18C29.6 13.18 30 12.79 30 12.3C30 5.51 24.48 0 17.69 0Z" fill="#FFFFFF" fill-opacity="1.000000" fill-rule="nonzero"/>
		<path id="Vector" d="M17.69 12.3C17.69 12.3 17.69 12.3 17.69 12.3C17.69 12.79 18.08 13.18 18.57 13.18C19.05 13.18 19.45 12.79 19.45 12.3C19.45 11.33 18.66 10.54 17.69 10.54C17.2 10.54 16.81 10.93 16.81 11.42C16.81 11.91 17.2 12.3 17.69 12.3Z" fill="#FFFFFF" fill-opacity="1.000000" fill-rule="nonzero"/>
		<path id="Vector" d="M17.69 8.78C19.63 8.78 21.21 10.36 21.21 12.3C21.21 12.79 21.6 13.18 22.08 13.18C22.57 13.18 22.96 12.79 22.96 12.3C22.96 9.39 20.6 7.03 17.69 7.03C17.2 7.03 16.81 7.42 16.81 7.91C16.81 8.39 17.2 8.78 17.69 8.78Z" fill="#FFFFFF" fill-opacity="1.000000" fill-rule="nonzero"/>
		<path id="Vector" d="M17.69 3.51C17.2 3.51 16.81 3.9 16.81 4.39C16.81 4.87 17.2 5.27 17.69 5.27C21.57 5.27 24.72 8.42 24.72 12.3C24.72 12.79 25.12 13.18 25.6 13.18C26.09 13.18 26.48 12.79 26.48 12.3C26.48 7.45 22.54 3.51 17.69 3.51Z" fill="#FFFFFF" fill-opacity="1.000000" fill-rule="nonzero"/>
	</g>
</svg>
