<svg width="62.000000" height="62.000000" viewBox="0 0 62 62" fill="none" xmlns="http://www.w3.org/2000/svg" xmlns:xlink="http://www.w3.org/1999/xlink">
	<desc>
			Created with Pixso.
	</desc>
	<defs>
		<filter id="filter_1_317_dd" x="0.000000" y="0.000000" width="62.000000" height="62.000000" filterUnits="userSpaceOnUse" color-interpolation-filters="sRGB">
			<feFlood flood-opacity="0" result="BackgroundImageFix"/>
			<feColorMatrix in="SourceAlpha" type="matrix" values="0 0 0 0 0 0 0 0 0 0 0 0 0 0 0 0 0 0 127 0" result="hardAlpha"/>
			<feOffset dx="0" dy="4"/>
			<feGaussianBlur stdDeviation="4.66667"/>
			<feComposite in2="hardAlpha" operator="out" k2="-1" k3="1"/>
			<feColorMatrix type="matrix" values="0 0 0 0 0 0 0 0 0 0 0 0 0 0 0 0 0 0 0.15 0"/>
			<feBlend mode="normal" in2="BackgroundImageFix" result="effect_dropShadow_1"/>
			<feBlend mode="normal" in="SourceGraphic" in2="effect_dropShadow_1" result="shape"/>
		</filter>
		<clipPath id="clip1_318">
			<rect id="twitter 1" rx="-0.500000" width="12.000000" height="12.000000" transform="translate(24.500000 21.500000)" fill="white" fill-opacity="0"/>
		</clipPath>
	</defs>
	<g filter="url(#filter_1_317_dd)">
		<circle id="Ellipse 1" cx="31.000000" cy="27.000000" r="17.000000" fill="#FFFFFF" fill-opacity="1.000000"/>
	</g>
	<rect id="twitter 1" rx="-0.500000" width="12.000000" height="12.000000" transform="translate(24.500000 21.500000)" fill="#FFFFFF" fill-opacity="0"/>
	<g clip-path="url(#clip1_318)">
		<path id="Vector" d="M37 23.46C36.51 23.68 36 23.82 35.46 23.89C36.01 23.56 36.43 23.04 36.63 22.41C36.12 22.72 35.55 22.94 34.94 23.06C34.45 22.54 33.76 22.21 33 22.21C31.52 22.21 30.33 23.41 30.33 24.88C30.33 25.09 30.35 25.29 30.39 25.49C28.18 25.38 26.22 24.32 24.9 22.7C24.67 23.1 24.54 23.56 24.54 24.05C24.54 24.97 25.01 25.79 25.72 26.26C25.29 26.25 24.87 26.13 24.52 25.93C24.52 25.94 24.52 25.95 24.52 25.96C24.52 27.26 25.44 28.33 26.65 28.58C26.43 28.64 26.2 28.67 25.95 28.67C25.78 28.67 25.61 28.66 25.45 28.62C25.79 29.68 26.77 30.46 27.94 30.48C27.03 31.19 25.88 31.62 24.63 31.62C24.41 31.62 24.2 31.61 24 31.58C25.18 32.34 26.57 32.78 28.08 32.78C32.99 32.78 35.67 28.71 35.67 25.19C35.67 25.07 35.66 24.96 35.66 24.85C36.19 24.47 36.63 24 37 23.46Z" fill="#000000" fill-opacity="1.000000" fill-rule="nonzero"/>
	</g>
</svg>
