<svg width="25.000000" height="25.000000" viewBox="0 0 25 25" fill="none" xmlns="http://www.w3.org/2000/svg" xmlns:xlink="http://www.w3.org/1999/xlink">
	<desc>
			Created with Pixso.
	</desc>
	<defs>
		<clipPath id="clip1_260">
			<rect id="fire 1" rx="-0.500000" width="24.000000" height="24.000000" transform="translate(0.500000 0.500000)" fill="white" fill-opacity="0"/>
		</clipPath>
	</defs>
	<rect id="fire 1" rx="-0.500000" width="24.000000" height="24.000000" transform="translate(0.500000 0.500000)" fill="#FFFFFF" fill-opacity="0"/>
	<g clip-path="url(#clip1_260)">
		<path id="Vector" d="M21.82 14.63C21.53 10.9 19.79 8.57 18.26 6.51C16.84 4.6 15.62 2.95 15.62 0.52C15.62 0.32 15.51 0.14 15.34 0.05C15.16 -0.04 14.95 -0.02 14.8 0.09C12.5 1.74 10.58 4.51 9.91 7.16C9.44 9 9.38 11.07 9.37 12.44C7.25 11.99 6.77 8.81 6.76 8.78C6.74 8.61 6.64 8.47 6.49 8.39C6.34 8.31 6.17 8.31 6.02 8.38C5.91 8.43 3.28 9.77 3.13 15.09C3.12 15.26 3.12 15.44 3.12 15.62C3.12 20.79 7.33 24.99 12.5 24.99C12.5 24.99 12.51 25 12.52 24.99C12.52 24.99 12.52 24.99 12.52 24.99C17.68 24.98 21.87 20.78 21.87 15.62C21.87 15.36 21.82 14.63 21.82 14.63ZM12.5 23.95C10.77 23.95 9.37 22.46 9.37 20.62C9.37 20.56 9.37 20.5 9.37 20.42C9.39 19.65 9.54 19.12 9.7 18.77C10.01 19.42 10.55 20.01 11.42 20.01C11.71 20.01 11.94 19.78 11.94 19.49C11.94 18.75 11.96 17.89 12.14 17.12C12.31 16.44 12.7 15.71 13.2 15.13C13.42 15.88 13.85 16.5 14.27 17.1C14.87 17.95 15.5 18.84 15.61 20.35C15.61 20.44 15.62 20.53 15.62 20.62C15.62 22.46 14.22 23.95 12.5 23.95Z" fill="#FFFFFF" fill-opacity="1.000000" fill-rule="nonzero"/>
	</g>
</svg>
