<svg width="21" height="21" fill="none" xmlns="http://www.w3.org/2000/svg"><defs><clipPath id="clip1_143"><rect id="arrow 1__game" rx="-.5" width="20" height="20" transform="rotate(180 10.75 10.75)" fill="#fff" fill-opacity="0"/></clipPath></defs><rect id="arrow 1__game" rx="-.5" width="20" height="20" transform="rotate(180 10.75 10.75)" fill="#FFF" fill-opacity="0"/><g clip-path="url(#clip1_143)"><path id="Vector" d="M1.26 11.97c.08.01.17.02.26.02h14.81l-.32.15c-.32.15-.6.35-.85.6l-4.15 4.15c-.55.53-.64 1.37-.22 1.99.49.67 1.43.82 2.1.33.05-.04.1-.08.15-.13l7.51-7.51c.59-.59.59-1.54.01-2.13h-.01l-7.51-7.51a1.49 1.49 0 00-2.12 0c-.05.05-.09.1-.13.15-.42.63-.33 1.47.22 1.99l4.14 4.16c.22.22.48.41.75.55l.45.2H1.6C.83 8.95.16 9.49.01 10.25c-.13.81.43 1.59 1.25 1.72z" fill="#DC7000" fill-opacity="1" fill-rule="nonzero"/></g></svg>