<svg width="25" height="25" fill="none" xmlns="http://www.w3.org/2000/svg"><defs><clipPath id="clip1_260"><rect id="fire 1" rx="-.5" width="24" height="24" transform="translate(.5 .5)" fill="#fff" fill-opacity="0"/></clipPath></defs><rect id="fire 1" rx="-.5" width="24" height="24" transform="translate(.5 .5)" fill="#FFF" fill-opacity="0"/><g clip-path="url(#clip1_260)"><path id="Vector" d="M21.82 14.63c-.29-3.73-2.03-6.06-3.56-8.12-1.42-1.91-2.64-3.56-2.64-5.99 0-.2-.11-.38-.28-.47a.522.522 0 00-.54.04c-2.3 1.65-4.22 4.42-4.89 7.07-.47 1.84-.53 3.91-.54 5.28-2.12-.45-2.6-3.63-2.61-3.66a.52.52 0 00-.74-.4c-.11.05-2.74 1.39-2.89 6.71-.01.17-.01.35-.01.53 0 5.17 4.21 9.37 9.38 9.37 0 0 .01.01.02 0 5.16-.01 9.35-4.21 9.35-9.37 0-.26-.05-.99-.05-.99zm-9.32 9.32c-1.73 0-3.13-1.49-3.13-3.33v-.2c.02-.77.17-1.3.33-1.65.31.65.85 1.24 1.72 1.24.29 0 .52-.23.52-.52 0-.74.02-1.6.2-2.37.17-.68.56-1.41 1.06-1.99.22.75.65 1.37 1.07 1.97.6.85 1.23 1.74 1.34 3.25 0 .09.01.18.01.27 0 1.84-1.4 3.33-3.12 3.33z" fill="#FFF" fill-opacity="1" fill-rule="nonzero"/></g></svg>