<svg width="80" height="80" fill="none" xmlns="http://www.w3.org/2000/svg"><defs><filter id="filter_63_5_dd" x="26.75" y="21.343" width="36.25" height="40.314" filterUnits="userSpaceOnUse" color-interpolation-filters="sRGB"><feFlood flood-opacity="0" result="BackgroundImageFix"/><feColorMatrix in="SourceAlpha" values="0 0 0 0 0 0 0 0 0 0 0 0 0 0 0 0 0 0 127 0" result="hardAlpha"/><feOffset dy="1"/><feGaussianBlur stdDeviation="1.333"/><feComposite in2="hardAlpha" operator="out" k2="-1" k3="1"/><feColorMatrix values="0 0 0 0 0 0 0 0 0 0 0 0 0 0 0 0 0 0 0.85 0"/><feBlend in2="BackgroundImageFix" result="effect_dropShadow_1"/><feBlend in="SourceGraphic" in2="effect_dropShadow_1" result="shape"/></filter></defs><path d="M40 80c22.09 0 40-17.91 40-40C80 17.9 62.09 0 40 0 17.9 0 0 17.9 0 40c0 22.09 17.9 40 40 40z" fill="#363838" fill-opacity=".4" fill-rule="evenodd"/><path d="M80 40C80 17.9 62.09 0 40 0 17.9 0 0 17.9 0 40c0 22.09 17.9 40 40 40 22.09 0 40-17.91 40-40z"/><g filter="url(#filter_63_5_dd)"><path d="M58.5 41.36L32.25 56.52c-.67.38-1.5-.1-1.5-.87V25.34c0-.77.83-1.25 1.5-.87L58.5 39.63c.66.38.66 1.35 0 1.73z" fill="#FFF" fill-opacity=".93" fill-rule="evenodd"/></g></svg>