<svg width="12" height="12" fill="none" xmlns="http://www.w3.org/2000/svg"><defs><clipPath id="clip1_506"><rect id="GAME_aRROW" rx="-.5" width="11" height="11" transform="matrix(1 0 0 -1 .5 12.5)" fill="#fff" fill-opacity="0"/></clipPath></defs><rect id="GAME_aRROW" rx="-.5" width="11" height="11" transform="matrix(1 0 0 -1 .5 12.5)" fill="#FFF" fill-opacity="0"/><g clip-path="url(#clip1_506)"><path id="Vector" d="M11.27 7.98c-.05.01-.1.01-.14.01H2.66l.18.09c.18.08.35.2.49.34l2.37 2.37c.32.3.37.78.13 1.14-.28.38-.82.47-1.2.19a.647.647 0 01-.09-.08L.25 7.75a.845.845 0 010-1.21l4.29-4.3c.34-.33.88-.33 1.21 0 .03.03.05.06.08.09.24.36.19.84-.13 1.14L3.33 5.84c-.12.13-.27.24-.43.32l-.25.11h8.43c.44-.01.82.29.9.73.08.46-.24.9-.71.98z" fill="#FFF" fill-opacity="1" fill-rule="nonzero"/></g></svg>