<svg width="12" height="12" fill="none" xmlns="http://www.w3.org/2000/svg"><defs><clipPath id="clip1_502"><rect id="GAME__ARROW" rx="-.5" width="11" height="11" transform="rotate(180 6.25 6.25)" fill="#fff" fill-opacity="0"/></clipPath></defs><rect id="GAME__ARROW" rx="-.5" width="11" height="11" transform="rotate(180 6.25 6.25)" fill="#FFF" fill-opacity="0"/><g clip-path="url(#clip1_502)"><path id="Vector" d="M.72 7.98c.05.01.1.01.14.01h8.47l-.18.09c-.18.08-.35.2-.49.34l-2.37 2.37c-.32.3-.37.78-.13 1.14.28.38.82.47 1.2.19.03-.02.06-.05.09-.08l4.29-4.29c.34-.33.34-.88 0-1.21l-4.29-4.3a.863.863 0 00-1.21 0c-.03.03-.05.06-.08.09-.24.36-.19.84.13 1.14l2.37 2.37c.12.13.27.24.43.32l.25.11H.91a.885.885 0 00-.9.73c-.08.46.24.9.71.98z" fill="#FFF" fill-opacity="1" fill-rule="nonzero"/></g></svg>