<svg width="62" height="62" fill="none" xmlns="http://www.w3.org/2000/svg"><defs><clipPath id="clip1_311"><rect id="instagram 1" rx="-.5" width="12" height="12" transform="translate(25.5 20.5)" fill="#fff" fill-opacity="0"/></clipPath><filter id="filter_1_310_dd" x="0" y="0" width="62" height="62" filterUnits="userSpaceOnUse" color-interpolation-filters="sRGB"><feFlood flood-opacity="0" result="BackgroundImageFix"/><feColorMatrix in="SourceAlpha" values="0 0 0 0 0 0 0 0 0 0 0 0 0 0 0 0 0 0 127 0" result="hardAlpha"/><feOffset dy="4"/><feGaussianBlur stdDeviation="4.667"/><feComposite in2="hardAlpha" operator="out" k2="-1" k3="1"/><feColorMatrix values="0 0 0 0 0 0 0 0 0 0 0 0 0 0 0 0 0 0 0.15 0"/><feBlend in2="BackgroundImageFix" result="effect_dropShadow_1"/><feBlend in="SourceGraphic" in2="effect_dropShadow_1" result="shape"/></filter></defs><g filter="url(#filter_1_310_dd)"><circle id="Ellipse 1" cx="31" cy="27" r="17" fill="#FFF" fill-opacity="1"/></g><rect id="instagram 1" rx="-.5" width="12" height="12" transform="translate(25.5 20.5)" fill="#FFF" fill-opacity="0"/><g clip-path="url(#clip1_311)" fill="#000"><path id="Vector" d="M34.48 20h-5.97C26.57 20 25 21.57 25 23.51v5.97c0 1.94 1.57 3.52 3.51 3.52h5.97c1.94 0 3.52-1.58 3.52-3.52v-5.97c0-1.94-1.58-3.51-3.52-3.51zm2.75 9.48c0 1.52-1.23 2.75-2.75 2.75h-5.97c-1.52 0-2.75-1.23-2.75-2.75v-5.97c0-1.52 1.23-2.75 2.75-2.75h5.97c1.52 0 2.75 1.23 2.75 2.75v5.97z"/><path id="Vector" d="M31.5 22.94c-1.96 0-3.56 1.59-3.56 3.56 0 1.96 1.6 3.55 3.56 3.55a3.55 3.55 0 003.55-3.55c0-1.97-1.59-3.56-3.55-3.56zm0 6.35c-1.54 0-2.8-1.26-2.8-2.79 0-1.54 1.26-2.8 2.8-2.8a2.8 2.8 0 012.79 2.8c0 1.53-1.25 2.79-2.79 2.79zm3.63-7.61c-.57 0-1.05.47-1.05 1.05a1.05 1.05 0 101.05-1.05zm0 1.34c-.15 0-.28-.13-.28-.29 0-.16.13-.29.28-.29a.29.29 0 010 .58z"/></g></svg>