<svg width="62" height="62" fill="none" xmlns="http://www.w3.org/2000/svg"><defs><clipPath id="clip1_325"><rect id="linkedin 1" rx="-.5" width="10" height="10" transform="translate(25.5 21.5)" fill="#fff" fill-opacity="0"/></clipPath><filter id="filter_1_324_dd" x="0" y="0" width="62" height="62" filterUnits="userSpaceOnUse" color-interpolation-filters="sRGB"><feFlood flood-opacity="0" result="BackgroundImageFix"/><feColorMatrix in="SourceAlpha" values="0 0 0 0 0 0 0 0 0 0 0 0 0 0 0 0 0 0 127 0" result="hardAlpha"/><feOffset dy="4"/><feGaussianBlur stdDeviation="4.667"/><feComposite in2="hardAlpha" operator="out" k2="-1" k3="1"/><feColorMatrix values="0 0 0 0 0 0 0 0 0 0 0 0 0 0 0 0 0 0 0.15 0"/><feBlend in2="BackgroundImageFix" result="effect_dropShadow_1"/><feBlend in="SourceGraphic" in2="effect_dropShadow_1" result="shape"/></filter></defs><g filter="url(#filter_1_324_dd)"><circle id="Ellipse 1" cx="31" cy="27" r="17" fill="#FFF" fill-opacity="1"/></g><rect id="linkedin 1" rx="-.5" width="10" height="10" transform="translate(25.5 21.5)" fill="#FFF" fill-opacity="0"/><g clip-path="url(#clip1_325)" fill="#000"><path id="Vector" d="M35.99 31.99H36v-4.03c0-1.97-.43-3.49-2.74-3.49-1.11 0-1.85.6-2.15 1.18h-.04v-1h-2.18v7.34h2.27v-3.63c0-.96.19-1.89 1.37-1.89 1.17 0 1.19 1.1 1.19 1.95v3.57h2.27zm-10.81-7.34h2.28V32h-2.28v-7.35zM26.32 21c-.73 0-1.32.59-1.32 1.32 0 .73.59 1.33 1.32 1.33a1.325 1.325 0 000-2.65z"/></g></svg>