<svg width="79.285" height="20.971" fill="none" xmlns="http://www.w3.org/2000/svg"><path id="LOGO_game" d="M20.44 20.38q1.7.59 3.6.59 1.87 0 3.55-.58.89-.3 1.72-.77 1.19-.67 2.13-1.59.97-.94 1.67-2.15.27-.47.49-.96.9-2.02.9-4.45t-.9-4.46q-.22-.49-.49-.95-.74-1.29-1.78-2.26-.89-.85-2-1.47-.69-.38-1.42-.66Q26.1 0 24.04 0q-1.92 0-3.64.59-.84.3-1.64.74-1.12.62-2.03 1.47-1.04.98-1.79 2.26-.28.48-.51.99-.89 2.01-.89 4.42 0 2.4.89 4.42.23.5.51.99.74 1.24 1.74 2.21.93.88 2.08 1.53.81.46 1.68.76zm44.77 0q1.7.59 3.61.59 1.87 0 3.54-.58.89-.3 1.73-.77 1.19-.67 2.13-1.59.96-.94 1.67-2.15.27-.47.49-.96.9-2.02.9-4.45t-.9-4.46q-.22-.49-.49-.95-.75-1.29-1.78-2.26-.89-.85-2.01-1.47-.68-.38-1.41-.66Q70.88 0 68.82 0q-1.93 0-3.64.59-.85.3-1.65.74-1.12.62-2.02 1.47-1.04.98-1.79 2.26-.28.48-.51.99-.89 2.01-.89 4.42 0 2.4.89 4.42.23.5.51.99.73 1.24 1.74 2.21.92.88 2.07 1.53.82.46 1.68.76zM49.56 6.36q.32.3.55.69h6.12q-.35-1.88-1.36-3.29-.72-1.02-1.78-1.79-.03-.02-.06-.05-2.51-1.8-6.32-1.8-3.02 0-5.34 1.27l-.08.04q-1.15.65-2.04 1.54-.94.94-1.6 2.14l-.14.28q-1.15 2.26-1.15 5.1 0 2.97 1.23 5.3.03.05.06.11.64 1.17 1.54 2.09.92.93 2.12 1.6.06.03.12.07 2.32 1.24 5.31 1.24 2.53 0 4.5-.91 1.97-.91 3.26-2.33 1.29-1.42 1.96-3.04V9.1H45.84v4.09h5.72q-.64 1.35-1.7 2.02-1.07.68-2.57.68-2.29 0-3.59-1.13-.13-.12-.25-.24-1.32-1.38-1.32-4.03 0-2.17 1.06-3.52.08-.11.18-.21.36-.42.8-.71 1.06-.69 2.57-.69 1.16 0 2.02.44.45.23.8.56zM12.03 16.41H5.68V.31H0v20.45h12.03v-4.35zm14.6-1.42q-1.07.69-2.59.69-1.61 0-2.71-.74-.41-.28-.75-.66-.07-.08-.13-.16-1.11-1.38-1.11-3.65 0-2.34 1.15-3.73l.09-.11q.35-.39.77-.67 1.1-.74 2.69-.74 1.53 0 2.61.7.45.29.82.71.07.07.13.15 1.13 1.38 1.13 3.69 0 2.16-1.04 3.53-.1.14-.22.27-.38.42-.84.72zm44.78 0q-1.07.69-2.59.69-1.61 0-2.71-.74-.41-.28-.75-.66l-.14-.16q-1.11-1.38-1.11-3.65 0-2.34 1.15-3.73.05-.06.1-.11.35-.39.76-.67 1.1-.74 2.7-.74 1.53 0 2.6.7.46.29.83.71.07.07.13.15 1.13 1.38 1.13 3.69 0 2.16-1.04 3.53-.11.14-.22.27-.38.42-.84.72z" fill="#FFF" fill-opacity="1" fill-rule="evenodd"/></svg>