<svg width="30" height="30" fill="none" xmlns="http://www.w3.org/2000/svg"><defs><clipPath id="clip1_930"><rect id="phone 1" rx="-.5" width="29" height="29" transform="translate(.5 .5)" fill="#fff" fill-opacity="0"/></clipPath></defs><rect id="phone 1" rx="-.5" width="29" height="29" transform="translate(.5 .5)" fill="#FFF" fill-opacity="0"/><g clip-path="url(#clip1_930)" fill="#FFF"><path id="Vector" d="M10.07 12.34a2.625 2.625 0 000-3.72L6.45 5c-.55-.55-1.31-.83-2.1-.77-.77.06-1.46.46-1.9 1.07-.1.13-.18.26-.27.39l7.27 7.28.62-.63zm14.92 11.19l-3.62-3.61a2.625 2.625 0 00-3.72 0l-.63.62 7.28 7.27.39-.27c.61-.44 1.01-1.13 1.07-1.9.06-.79-.22-1.55-.77-2.11zm-10.45-1.6c-.71 0-1.37-.27-1.87-.77l-3.84-3.84c-.5-.5-.77-1.16-.77-1.87 0-.4.08-.79.25-1.14L1.28 7.28a13.32 13.32 0 00-1.25 6.74c.25 3.15 1.6 6.11 3.83 8.33l3.78 3.78a13.27 13.27 0 008.33 3.83c.34.02.69.04 1.03.04 1.98 0 3.94-.45 5.71-1.29l-7.03-7.03c-.36.17-.74.25-1.14.25zM17.69 0a.875.875 0 100 1.75c5.82 0 10.55 4.73 10.55 10.55 0 .49.39.88.88.88.48 0 .88-.39.88-.88C30 5.51 24.48 0 17.69 0zm0 12.3c0 .49.39.88.88.88.48 0 .88-.39.88-.88 0-.97-.79-1.76-1.76-1.76-.49 0-.88.39-.88.88s.39.88.88.88zm0-3.52c1.94 0 3.52 1.58 3.52 3.52a.875.875 0 101.75 0 5.27 5.27 0 00-5.27-5.27.875.875 0 100 1.75z"/><path id="Vector" d="M17.69 3.51c-.49 0-.88.39-.88.88 0 .48.39.88.88.88 3.88 0 7.03 3.15 7.03 7.03 0 .49.4.88.88.88.49 0 .88-.39.88-.88 0-4.85-3.94-8.79-8.79-8.79z"/></g></svg>