<svg width="62" height="62" fill="none" xmlns="http://www.w3.org/2000/svg"><defs><clipPath id="clip1_318"><rect id="twitter 1" rx="-.5" width="12" height="12" transform="translate(24.5 21.5)" fill="#fff" fill-opacity="0"/></clipPath><filter id="filter_1_317_dd" x="0" y="0" width="62" height="62" filterUnits="userSpaceOnUse" color-interpolation-filters="sRGB"><feFlood flood-opacity="0" result="BackgroundImageFix"/><feColorMatrix in="SourceAlpha" values="0 0 0 0 0 0 0 0 0 0 0 0 0 0 0 0 0 0 127 0" result="hardAlpha"/><feOffset dy="4"/><feGaussianBlur stdDeviation="4.667"/><feComposite in2="hardAlpha" operator="out" k2="-1" k3="1"/><feColorMatrix values="0 0 0 0 0 0 0 0 0 0 0 0 0 0 0 0 0 0 0.15 0"/><feBlend in2="BackgroundImageFix" result="effect_dropShadow_1"/><feBlend in="SourceGraphic" in2="effect_dropShadow_1" result="shape"/></filter></defs><g filter="url(#filter_1_317_dd)"><circle id="Ellipse 1" cx="31" cy="27" r="17" fill="#FFF" fill-opacity="1"/></g><rect id="twitter 1" rx="-.5" width="12" height="12" transform="translate(24.5 21.5)" fill="#FFF" fill-opacity="0"/><g clip-path="url(#clip1_318)"><path id="Vector" d="M37 23.46c-.49.22-1 .36-1.54.43.55-.33.97-.85 1.17-1.48-.51.31-1.08.53-1.69.65-.49-.52-1.18-.85-1.94-.85a2.67 2.67 0 00-2.67 2.67c0 .21.02.41.06.61a7.553 7.553 0 01-5.49-2.79c-.23.4-.36.86-.36 1.35 0 .92.47 1.74 1.18 2.21-.43-.01-.85-.13-1.2-.33v.03c0 1.3.92 2.37 2.13 2.62-.22.06-.45.09-.7.09-.17 0-.34-.01-.5-.05a2.67 2.67 0 002.49 1.86c-.91.71-2.06 1.14-3.31 1.14-.22 0-.43-.01-.63-.04 1.18.76 2.57 1.2 4.08 1.2 4.91 0 7.59-4.07 7.59-7.59 0-.12-.01-.23-.01-.34.53-.38.97-.85 1.34-1.39z" fill="#000" fill-opacity="1" fill-rule="nonzero"/></g></svg>